<?xml version="1.0" encoding="utf-8"?>
<!-- Generator: Adobe Illustrator 15.0.0, SVG Export Plug-In . SVG Version: 6.00 Build 0)  -->
<!DOCTYPE svg PUBLIC "-//W3C//DTD SVG 1.1//EN" "http://www.w3.org/Graphics/SVG/1.1/DTD/svg11.dtd">
<svg version="1.1" xmlns="http://www.w3.org/2000/svg" xmlns:xlink="http://www.w3.org/1999/xlink" x="0px" y="0px"
	 width="346.023px" height="518.546px" viewBox="0 0 346.023 518.546" enable-background="new 0 0 346.023 518.546"
	 xml:space="preserve">
<g id="SHADE">
	<g id="LWPOLYLINE_175_">
		<polygon fill="#231F20" stroke="#000000" stroke-linecap="square" stroke-linejoin="round" stroke-miterlimit="10" points="
			0.5,259.271 6.13,267.722 173.009,17.403 173.009,0.5 		"/>
	</g>
	<g id="LWPOLYLINE_176_">
		<polygon fill="#231F20" stroke="#000000" stroke-linecap="square" stroke-linejoin="round" stroke-miterlimit="10" points="
			173.009,501.148 339.899,250.824 345.523,259.271 173.009,518.046 		"/>
	</g>
	<g id="LWPOLYLINE_178_">
		<polygon fill="#231F20" stroke="#000000" stroke-linecap="square" stroke-linejoin="round" stroke-miterlimit="10" points="
			170.675,46.263 170.675,54.713 147.228,89.863 147.228,254.582 142.543,259.271 142.543,88.45 		"/>
	</g>
	<g id="LWPOLYLINE_179_">
		<polygon fill="#231F20" stroke="#000000" stroke-linecap="square" stroke-linejoin="round" stroke-miterlimit="10" points="
			208.158,103.926 208.158,95.481 180.038,53.3 180.038,259.271 184.732,254.582 184.732,68.779 		"/>
	</g>
	<g id="LWPOLYLINE_180_">
		<polygon fill="#231F20" stroke="#000000" stroke-linecap="square" stroke-linejoin="round" stroke-miterlimit="10" points="
			217.544,101.092 222.228,108.121 222.228,243.79 217.544,259.271 		"/>
	</g>
	<g id="LWPOLYLINE_184_">
		<polygon fill="#231F20" stroke="#000000" stroke-linecap="square" stroke-linejoin="round" stroke-miterlimit="10" points="
			170.675,259.271 142.543,259.271 142.543,430.099 170.675,472.283 170.675,463.835 147.228,428.68 147.228,263.958 
			170.675,263.958 		"/>
	</g>
	<g id="LWPOLYLINE_185_">
		<polygon fill="#231F20" stroke="#000000" stroke-linecap="square" stroke-linejoin="round" stroke-miterlimit="10" points="
			208.158,259.271 180.038,259.271 180.038,465.26 208.158,423.07 208.158,414.62 184.732,449.772 184.732,263.958 208.158,263.958 
					"/>
	</g>
	<g id="LWPOLYLINE_186_">
		<polyline fill="#231F20" stroke="#000000" stroke-linecap="square" stroke-linejoin="round" stroke-miterlimit="10" points="
			270.266,180.183 273.08,184.408 223.173,259.271 217.544,259.271 270.266,180.183 		"/>
	</g>
	<g id="LWPOLYLINE_188_">
		<polygon fill="#231F20" stroke="#000000" stroke-linecap="square" stroke-linejoin="round" stroke-miterlimit="10" points="
			217.544,417.457 217.544,259.271 270.266,338.363 267.45,342.591 222.228,274.753 222.228,410.428 		"/>
	</g>
</g>
<g id="NOSHADE">
	<g id="LWPOLYLINE_17_">
		<polygon fill="none" stroke="#231F20" stroke-linecap="square" stroke-linejoin="round" stroke-miterlimit="10" points="
			173.009,0.5 339.899,250.824 334.258,259.271 173.009,17.403 		"/>
	</g>
	<g id="LWPOLYLINE_16_">
		<polygon fill="none" stroke="#231F20" stroke-linecap="square" stroke-linejoin="round" stroke-miterlimit="10" points="
			6.13,267.722 11.76,259.271 173.009,501.148 173.009,518.046 		"/>
	</g>
	<g id="LWPOLYLINE_15_">
		<polygon fill="none" stroke="#231F20" stroke-linecap="square" stroke-linejoin="round" stroke-miterlimit="10" points="
			170.675,46.263 170.675,37.815 137.859,87.029 137.859,431.517 170.675,480.733 170.675,472.283 142.543,430.099 142.543,88.45 		
			"/>
	</g>
	<g id="LWPOLYLINE_14_">
		<polygon fill="none" stroke="#231F20" stroke-linecap="square" stroke-linejoin="round" stroke-miterlimit="10" points="
			208.158,87.029 175.365,37.815 175.365,480.733 208.158,431.517 208.158,423.07 180.038,465.26 180.038,53.3 208.158,95.481 		"/>
	</g>
	<g id="LWPOLYLINE_13_">
		<polygon fill="none" stroke="#231F20" stroke-linecap="square" stroke-linejoin="round" stroke-miterlimit="10" points="
			212.854,94.058 212.854,424.488 217.544,417.457 217.544,101.092 		"/>
	</g>
	<g id="LWPOLYLINE_12_">
		<polygon fill="none" stroke="#231F20" stroke-linecap="square" stroke-linejoin="round" stroke-miterlimit="10" points="
			267.45,175.952 270.266,180.183 217.544,259.271 222.228,243.79 		"/>
	</g>
	<g id="LWPOLYLINE_11_">
		<polygon fill="none" stroke="#231F20" stroke-linecap="square" stroke-linejoin="round" stroke-miterlimit="10" points="
			170.675,254.582 170.675,259.271 142.543,259.271 147.228,254.582 		"/>
	</g>
	<g id="LWPOLYLINE_10_">
		<polygon fill="none" stroke="#231F20" stroke-linecap="square" stroke-linejoin="round" stroke-miterlimit="10" points="
			180.038,259.271 184.732,254.582 208.158,254.582 208.158,259.271 		"/>
	</g>
	<g id="LWPOLYLINE_9_">
		<polygon fill="none" stroke="#231F20" stroke-linecap="square" stroke-linejoin="round" stroke-miterlimit="10" points="
			273.08,334.141 270.266,338.363 217.544,259.271 223.173,259.271 		"/>
	</g>
	<g id="LWPOLYLINE_8_">
		<path fill="#231F20" stroke="#000000" stroke-linecap="square" stroke-linejoin="round" stroke-miterlimit="10" d="
			M123.807,220.199l4.689-7.032v-78.853c0-4.147-3.357-7.499-7.51-7.499c-2.271-0.121-5.07,1.374-6.234,3.338L44.788,235.102
			c-2.216,3.276-1.438,7.821,1.746,10.168c6.318,5.319,18.736,9.603,26.985,9.306c30.477,0.61,55.056,25.754,54.977,56.234v48.343
			c0.448,4.342-1.869,10.325-5.131,13.232c-6.855,6.886-18.009,6.909-24.897,0.042c6.727,8.414,18.999,9.779,27.415,3.059
			c4.656-3.327,7.925-10.647,7.298-16.333v-48.315c0.095-33.032-26.526-60.282-59.55-60.943c-7.432,0.266-18.602-3.593-24.287-8.377
			c-1.197-0.884-1.488-2.585-0.66-3.816l69.964-104.949c0.441-0.733,1.482-1.301,2.339-1.248c1.562,0,2.82,1.256,2.82,2.81V220.199z
			"/>
	</g>
	<g id="LWPOLYLINE_3_">
		<path fill="#231F20" stroke="#000000" stroke-linecap="square" stroke-linejoin="round" stroke-miterlimit="10" d="
			M105.742,374.886c-2.126-0.083-5.529-1.234-7.274-2.459l-57.586-86.375c-3.598-5.322-2.327-12.701,2.849-16.517l2.804,3.755
			c-3.184,2.348-3.962,6.886-1.746,10.168L105.742,374.886z"/>
	</g>
	<g id="LWPOLYLINE_2_">
		<path fill="none" stroke="#231F20" stroke-linecap="square" stroke-linejoin="round" stroke-miterlimit="10" d="M111.12,374.503
			c-1.394,0.395-3.951,0.574-5.378,0.383l-60.954-91.428c-2.216-3.282-1.438-7.821,1.746-10.168l2.81,3.752
			c-1.197,0.887-1.488,2.585-0.66,3.813L111.12,374.503z"/>
	</g>
	<g id="LWPOLYLINE_1_">
		<path fill="none" stroke="#231F20" stroke-linecap="square" stroke-linejoin="round" stroke-miterlimit="10" d="M98.468,372.427
			c6.889,6.867,18.042,6.844,24.897-0.042c3.262-2.907,5.579-8.89,5.131-13.232v-48.315c0.096-30.491-24.488-55.646-54.977-56.262
			c-8.249,0.297-20.667-3.987-26.985-9.306c-3.184-2.348-3.962-6.892-1.746-10.168l69.964-104.949
			c1.164-1.964,3.963-3.458,6.234-3.338c4.152,0,7.51,3.352,7.51,7.499v78.853l4.685-7.029v-71.824
			c0-6.729-5.451-12.186-12.194-12.186c-3.699-0.196-8.243,2.23-10.141,5.423L40.882,232.502
			c-3.598,5.328-2.327,12.706,2.849,16.523c6.951,5.848,20.611,10.563,29.693,10.238c27.931,0.56,50.462,23.607,50.383,51.547
			v48.343c0.022,2.37-1.152,6.114-2.523,8.05C116.431,374.948,106.218,377.284,98.468,372.427z"/>
	</g>
</g>
</svg>
